<svg id="bold" enable-background="new 0 0 32 32" height="512" viewBox="0 0 32 32" width="512" xmlns="http://www.w3.org/2000/svg"><path d="m26 32h-20c-3.314 0-6-2.686-6-6v-20c0-3.314 2.686-6 6-6h20c3.314 0 6 2.686 6 6v20c0 3.314-2.686 6-6 6z" fill="#e3f8fa"/><path d="m23.5 19.333h-.883c-.063-.448-.185-.872-.361-1.256l.827-.478c.239-.138.321-.444.183-.683-.137-.239-.443-.322-.683-.183l-.852.492c-.16-.199-.335-.379-.525-.535.08-.165.128-.341.128-.524 0-.841-.878-1.5-2-1.5s-2 .659-2 1.5c0 .184.048.359.128.524-.191.156-.366.336-.525.535l-.852-.492c-.24-.139-.546-.056-.683.183-.138.239-.056.545.183.683l.827.478c-.176.384-.298.808-.361 1.256h-.883c-.276 0-.5.224-.5.5s.224.5.5.5h.847c.039.572.177 1.111.396 1.589l-.828.478c-.239.138-.321.444-.183.683s.443.322.683.183l.852-.492c.607.755 1.456 1.226 2.398 1.226s1.792-.471 2.398-1.226l.852.492c.24.139.546.056.683-.183.138-.239.056-.545-.183-.683l-.827-.477c.219-.479.357-1.017.396-1.589h.848c.276 0 .5-.224.5-.5s-.224-.501-.5-.501z" fill="#8ce1eb"/><g fill="#26c6da"><path d="m20.667 8h-10.667c-1.105 0-2 .895-2 2s.895 2 2 2h10.667c1.105 0 2-.895 2-2s-.896-2-2-2zm-10.667 2.667c-.368 0-.667-.299-.667-.667s.299-.667.667-.667.667.298.667.667c0 .368-.299.667-.667.667zm2.667 0c-.369 0-.667-.299-.667-.667s.298-.667.667-.667c.368 0 .667.298.667.667-.001.368-.299.667-.667.667z"/><path d="m10 13.333c-1.107 0-2 .893-2 2s.893 2 2 2h4.013c-.04-.367.033-.74.233-1.08.24-.427.633-.727 1.107-.86.26-.067.527-.08.78-.033.4-1.187 1.66-2.027 3.2-2.027zm0 2.667c-.367 0-.667-.3-.667-.667s.3-.667.667-.667.667.3.667.667-.3.667-.667.667zm2.667 0c-.367 0-.667-.3-.667-.667s.3-.667.667-.667.667.3.667.667-.301.667-.667.667z"/><path d="m13.333 19.833c0-.44.153-.847.42-1.167h-3.753c-1.107 0-2 .893-2 2s.893 2 2 2h4.007c.04-.413.213-.813.513-1.113-.693-.266-1.187-.933-1.187-1.72zm-3.333 1.5c-.367 0-.667-.3-.667-.667 0-.366.3-.666.667-.666s.667.3.667.667c0 .366-.3.666-.667.666zm2.667 0c-.367 0-.667-.3-.667-.667 0-.366.3-.666.667-.666s.667.3.667.667c-.001.366-.301.666-.667.666z"/></g></svg>