<svg id="bold" enable-background="new 0 0 24 24" height="512" viewBox="0 0 24 24" width="512" xmlns="http://www.w3.org/2000/svg"><path d="m23.25 17h-1.325c-.094-.672-.277-1.308-.541-1.884l1.241-.716c.358-.207.481-.666.274-1.024-.206-.359-.665-.482-1.024-.274l-1.278.738c-.239-.298-.502-.568-.788-.802.119-.249.191-.512.191-.788 0-1.262-1.317-2.25-3-2.25s-3 .988-3 2.25c0 .276.072.539.191.786-.286.234-.549.504-.788.802l-1.278-.738c-.36-.208-.818-.084-1.024.274-.207.359-.084.817.274 1.024l1.241.716c-.264.577-.447 1.212-.541 1.884h-1.325c-.414.002-.75.338-.75.752s.336.75.75.75h1.271c.059.858.266 1.666.595 2.384l-1.241.716c-.358.207-.481.666-.274 1.024s.664.482 1.024.274l1.278-.738c.909 1.133 2.183 1.84 3.597 1.84s2.688-.707 3.597-1.839l1.278.738c.359.208.818.084 1.024-.274.207-.359.084-.817-.274-1.024l-1.241-.716c.329-.718.535-1.526.595-2.384h1.271c.414 0 .75-.336.75-.75s-.336-.751-.75-.751z"/><path d="m19 0h-16c-1.657 0-3 1.343-3 3s1.343 3 3 3h16c1.657 0 3-1.343 3-3s-1.343-3-3-3zm-16 4c-.552 0-1-.448-1-1s.448-1 1-1 1 .448 1 1-.448 1-1 1zm4 0c-.552 0-1-.448-1-1s.448-1 1-1 1 .448 1 1-.448 1-1 1z"/><path d="m3 8c-1.66 0-3 1.34-3 3s1.34 3 3 3h6.02c-.06-.55.05-1.11.35-1.62.36-.64.95-1.09 1.66-1.29.39-.1.79-.12 1.17-.05.6-1.78 2.49-3.04 4.8-3.04zm0 4c-.55 0-1-.45-1-1s.45-1 1-1 1 .45 1 1-.45 1-1 1zm4 0c-.55 0-1-.45-1-1s.45-1 1-1 1 .45 1 1-.45 1-1 1z"/><path d="m8 17.75c0-.66.23-1.27.63-1.75h-5.63c-1.66 0-3 1.34-3 3s1.34 3 3 3h6.01c.06-.62.32-1.22.77-1.67-1.04-.4-1.78-1.4-1.78-2.58zm-5 2.25c-.55 0-1-.45-1-1s.45-1 1-1 1 .45 1 1-.45 1-1 1zm4 0c-.55 0-1-.45-1-1s.45-1 1-1 1 .45 1 1-.45 1-1 1z"/></svg>